<svg id="Layer_1" data-name="Layer 1" xmlns="http://www.w3.org/2000/svg" viewBox="0 0 512 512"><title>globe-world-flat</title><path d="M0,256C0,114.62,114.62,0,256,0S512,114.63,512,256,397.37,512,256,512,0,397.38,0,256Z" fill="#ffc100"/><path d="M206.47,205.11h44.61v46H201.39a241.88,241.88,0,0,1,5.08-46Zm0,101.78h44.61v-46H201.39a242,242,0,0,0,5.08,46Zm44.61-111.64V136.15c-18.05,3.54-33.55,26.39-42.29,59.09ZM315.8,306.89H365a119.14,119.14,0,0,0,11.13-46h-55.7a258.08,258.08,0,0,1-4.64,46Zm0-101.78a260.6,260.6,0,0,1,4.67,46h55.67a119.54,119.54,0,0,0-11.13-46Zm-2.22-9.86h46.26a120.47,120.47,0,0,0-74.23-55.81c12.14,12,21.88,31.46,28,55.81ZM251.08,375.83V316.73H208.79c8.74,32.71,24.23,55.54,42.29,59.09ZM303.2,195.25c-8.72-32.68-24.2-55.55-42.29-59.09v59.09Zm7.4,65.67H260.92v46h44.64a242.34,242.34,0,0,0,5.05-46Zm-174.74,0a119.59,119.59,0,0,0,11.16,46H196.2a258.06,258.06,0,0,1-4.65-46Zm62.59,55.81H152.19a120.3,120.3,0,0,0,74.22,55.83c-12.13-12-21.88-31.48-28-55.83Zm115.12,0c-6.08,24.35-15.83,43.79-28,55.83a120.46,120.46,0,0,0,74.23-55.83ZM198.45,195.25c6.08-24.35,15.8-43.79,27.94-55.81a120.4,120.4,0,0,0-74.2,55.81Zm107.1,9.86H260.92v46H310.6a242.18,242.18,0,0,0-5.05-46Zm-158.53,0a119.08,119.08,0,0,0-11.16,46h55.69a258.14,258.14,0,0,1,4.65-46Zm113.9,111.62v59.11c18.08-3.54,33.57-26.41,42.29-59.11Zm0,0" fill="#fff"/></svg>